<?xml version="1.0" encoding="utf-8"?>
<!-- Generator: Adobe Illustrator 21.0.2, SVG Export Plug-In . SVG Version: 6.00 Build 0)  -->
<svg version="1.1" id="Layer_1" xmlns="http://www.w3.org/2000/svg" xmlns:xlink="http://www.w3.org/1999/xlink" x="0px" y="0px"
	 viewBox="0 0 100 100" style="enable-background:new 0 0 100 100;" xml:space="preserve">
<g>
	<path d="M60.6,34.2H69l-4,20.3c-0.2,0.8-0.4,2.5-0.4,3.4c0,0.9,0.2,2.2,0.9,2.8c0.4,0.4,0.9,0.6,1.7,0.6c1,0,2.3-0.7,3.2-1.5
		c3.6-3.1,5.3-10.2,5.3-14.4c0-6.4-2.5-11.9-5.8-15.3c-3.8-4-10.4-7-18.2-7c-8.1,0-14.9,3.3-19.3,7.8c-5.2,5.3-7.9,12.9-7.9,19.8
		c0,7.8,3.3,15.3,8.6,20.1c6.2,5.5,13.3,6.3,19.3,6.3c7.9,0,14.2-1.9,18-3.3l1.9,7.6c-7.2,2.5-13.6,3.2-19.6,3.2
		c-9.3,0-19.4-1.8-27.1-9.9c-6.1-6.4-9.3-15.6-9.3-24.4c0-11.6,4.6-19.7,10.1-25c7.2-7,15.8-9.7,25.4-9.7c7,0,15.8,1.5,23,8.6
		c5,4.9,8.3,11.5,8.3,20.6c0,7.7-2.7,15-7.2,19.3c-3.8,3.7-7.6,4-9.3,4c-2.2,0-4-0.7-5.4-1.9c-1.5-1.2-2-2.6-2.3-3.7
		c-3.9,6.1-10,6.4-12.2,6.4c-4.2,0-7.4-1.3-10-4c-3.4-3.5-4.2-7.5-4.2-11.7c0-4.9,1.1-10.3,5.5-14.9c3.7-3.9,8-5.1,11.9-5.1
		c6.6,0,9.2,3.9,9.9,5.2L60.6,34.2z M54.2,58.1c2.2-2.2,3.4-5.6,3.4-8.6c0-2.8-0.9-4.9-2.2-6.1c-1.4-1.3-3.1-1.5-4.3-1.5
		c-2.3,0-4.1,0.8-5.6,2.3c-2.3,2.2-3.5,5.6-3.5,8.6c0,2.7,0.9,4.6,2.1,5.8c1.1,1.1,2.7,1.8,4.7,1.8C50.7,60.4,52.5,59.8,54.2,58.1z"
		/>
</g>
</svg>
