<svg xmlns="http://www.w3.org/2000/svg" width="20" height="20"><g style="line-height:100%"><path d="M10.546 13.538Q9.13 15.16 7.548 15.16q-1.435 0-2.49-1.2-1.045-1.212-1.045-3.175 0-2.314 1.553-4.267 1.553-1.963 3.516-1.963 1.855 0 2.949 1.787l.332-1.514h1.748l-1.406 6.563q-.293 1.357-.293 1.514 0 .283.215.468.214.176.449.176.517 0 1.465-.654.957-.664 1.64-1.973.684-1.308.684-2.783 0-2.676-2.022-4.414-2.011-1.748-4.96-1.748-3.614 0-5.88 2.451-2.265 2.441-2.265 5.947 0 3.633 2.246 5.576 2.246 1.944 6.162 1.944 2.295 0 4.092-.772 1.806-.771 2.783-2.177h1.768q-.81 1.68-3.028 3.037-2.217 1.357-5.586 1.357-4.726 0-7.304-2.402Q.293 14.544.293 10.56q0-4.004 2.539-7.002T9.97.56q3.75 0 6.045 2.226 2.295 2.217 2.295 5.391 0 2.705-1.836 4.854-1.836 2.138-4.053 2.138-.976 0-1.386-.4-.41-.4-.489-1.23zM5.82 10.95q0 1.221.615 1.993.615.771 1.465.771 1.338 0 2.451-1.484 1.123-1.494 1.123-3.438 0-1.299-.654-2.04-.645-.753-1.611-.753Q7.724 6 6.767 7.63q-.947 1.631-.947 3.32z" style="line-height:100%;-inkscape-font-specification:'Rockwell, Normal';text-align:start" font-size="20" font-family="Rockwell" font-weight="400" letter-spacing="0" word-spacing="0"/></g></svg>