<svg xmlns="http://www.w3.org/2000/svg" viewBox="0 0 400 400.3">
  <path d="M359.817 228.879l-41.573-27.81 41.573-27.81zm-143.51 117.883V269.25l72.046-48.184 58.159 38.896zM199.69 240.383l-58.778-39.315 58.778-39.314 58.774 39.314zM183.07 346.762L52.862 259.963l58.164-38.896 72.043 48.184zM39.559 173.259l41.577 27.81-41.578 27.81zm143.51-117.884v77.51l-72.043 48.195-58.164-38.908zm33.237 0l130.206 86.797-58.159 38.908-72.047-48.194zm176.6 84.61c-.034-.243-.096-.477-.136-.72-.082-.47-.168-.938-.29-1.395-.072-.275-.174-.539-.259-.803-.133-.408-.265-.815-.428-1.21a16.08 16.08 0 0 0-.37-.814 12.359 12.359 0 0 0-.566-1.099c-.152-.265-.315-.52-.472-.773a14.795 14.795 0 0 0-.704-1.008 18.523 18.523 0 0 0-.568-.723c-.265-.304-.54-.609-.83-.894-.217-.223-.433-.447-.66-.651a18.98 18.98 0 0 0-.942-.793c-.248-.194-.493-.387-.752-.57-.097-.061-.183-.142-.275-.204L208.905 10.496a16.613 16.613 0 0 0-18.436 0L13.721 128.328c-.092.062-.179.143-.275.204-.26.183-.504.376-.748.57-.325.253-.641.518-.94.793-.234.204-.448.428-.666.65a14.416 14.416 0 0 0-1.399 1.618 15.2 15.2 0 0 0-.697 1.008 13.825 13.825 0 0 0-1.043 1.872c-.127.264-.259.539-.37.813-.163.396-.295.803-.429 1.211-.086.264-.182.528-.258.803-.123.457-.204.925-.291 1.394-.04.244-.101.478-.132.722a15.99 15.99 0 0 0-.152 2.166v117.832c0 .732.055 1.455.152 2.178.03.234.092.477.132.71.087.47.168.936.29 1.395.077.275.173.539.26.804.133.405.265.813.427 1.22.112.276.244.54.371.804.179.375.361.741.565 1.108.152.256.31.508.478.763.218.346.453.682.697 1.008.183.254.376.488.575.721.26.305.534.61.824.896.218.223.432.447.666.65.299.277.615.54.94.794.244.195.488.387.748.57.096.06.183.142.275.202L190.469 391.64a16.612 16.612 0 0 0 9.221 2.798c3.21 0 6.423-.936 9.215-2.798l176.75-117.833c.091-.06.177-.141.274-.203.259-.182.504-.374.752-.569.321-.253.636-.517.941-.795.228-.202.444-.426.662-.649.289-.285.564-.59.829-.896.193-.233.387-.467.568-.721.25-.326.48-.662.704-1.008.157-.255.32-.507.472-.763.21-.367.39-.733.565-1.108.127-.264.258-.528.371-.804.163-.407.295-.815.428-1.22.085-.265.187-.53.259-.804.122-.459.208-.925.29-1.395.04-.233.102-.476.136-.71.092-.723.15-1.446.15-2.178V142.152c0-.732-.058-1.454-.15-2.166" fill="#fafdff"/>
</svg>
