<svg xmlns="http://www.w3.org/2000/svg" viewBox="0 0 400 400.3">
  <path d="M200.84 8.44C92.536 8.44 4.727 96.25 4.727 204.577c0 86.653 56.192 160.158 134.128 186.105 9.813 1.794 13.389-4.262 13.389-9.464 0-4.647-.169-16.988-.265-33.351-54.554 11.848-66.065-26.296-66.065-26.296-8.921-22.66-21.78-28.692-21.78-28.692-17.808-12.16 1.348-11.92 1.348-11.92 19.686 1.385 30.04 20.216 30.04 20.216 17.495 29.968 45.91 21.311 57.083 16.29 1.782-12.666 6.839-21.31 12.45-26.211-43.55-4.949-89.339-21.78-89.339-96.936 0-21.407 7.646-38.914 20.192-52.627-2.023-4.961-8.753-24.9 1.914-51.906 0 0 16.471-5.273 53.94 20.107 15.64-4.358 32.424-6.525 49.1-6.598 16.652.077 33.436 2.24 49.1 6.598 37.445-25.38 53.88-20.107 53.88-20.107 10.704 27.006 3.973 46.945 1.95 51.906 12.57 13.713 20.168 31.22 20.168 52.627 0 75.348-45.861 91.927-89.555 96.78 7.043 6.056 13.316 18.024 13.316 36.325 0 26.211-.24 47.366-.24 53.795 0 5.25 3.527 11.354 13.485 9.44 77.876-25.995 134.019-99.452 134.019-186.081C396.986 96.25 309.165 8.44 200.839 8.44" fill-rule="evenodd"/>
</svg>
