<svg xmlns="http://www.w3.org/2000/svg" viewBox="0 0 400 400.3">
  <path d="M337.943 338.208H279.86v-90.912c0-21.676-.374-49.557-30.194-49.557-30.22 0-34.835 23.631-34.835 48.01v92.459H156.8V151.283h55.677v25.554h.808c7.761-14.697 26.69-30.184 54.956-30.184 58.848 0 69.702 38.7 69.702 89.04zM91.304 125.749c-18.658 0-33.73-15.096-33.73-33.686 0-18.599 15.072-33.697 33.73-33.697 18.574 0 33.662 15.098 33.662 33.697 0 18.59-15.088 33.686-33.662 33.686zm29.055 212.459H62.19V151.283h58.168zM366.869 4.44H33.06c-15.937 0-28.884 12.641-28.884 28.24v335.194c0 15.598 12.947 28.264 28.885 28.264h333.81c15.981 0 28.977-12.666 28.977-28.264V32.68c0-15.599-12.996-28.24-28.977-28.24"/>
</svg>
