<svg xmlns="http://www.w3.org/2000/svg" id="Layer_1" viewBox="0 0 400 400">
  <style>
    .st1{fill:#161616}
  </style>
  <path fill="#fff" stroke="#161616" stroke-miterlimit="10" d="M77 379.5c-4.7 0-8.5-3.8-8.5-8.5V30c0-4.7 3.8-8.5 8.5-8.5h246c4.7 0 8.5 3.8 8.5 8.5v341c0 4.7-3.8 8.5-8.5 8.5H77z"/>
  <path fill="#161616" d="M323 25c2.8 0 5 2.2 5 5v341c0 2.8-2.2 5-5 5H77c-2.8 0-5-2.2-5-5V30c0-2.8 2.2-5 5-5h246m0-7H77c-6.6 0-12 5.4-12 12v341c0 6.6 5.4 12 12 12h246c6.6 0 12-5.4 12-12V30c0-6.6-5.4-12-12-12z"/>
  <path fill="#161616" d="M307.7 56.9h-69.3c-1.5 0-2.7-1.2-2.7-2.7v-.4c0-1.5 1.2-2.7 2.7-2.7h69.3c1.5 0 2.7 1.2 2.7 2.7v.4c.1 1.5-1.2 2.7-2.7 2.7zM307.7 67.4h-69.3c-1.5 0-2.7-1.2-2.7-2.7v-.4c0-1.5 1.2-2.7 2.7-2.7h69.3c1.5 0 2.7 1.2 2.7 2.7v.4c.1 1.4-1.2 2.7-2.7 2.7zM307.7 77.8h-69.3c-1.5 0-2.7-1.2-2.7-2.7v-.4c0-1.5 1.2-2.7 2.7-2.7h69.3c1.5 0 2.7 1.2 2.7 2.7v.3c.1 1.5-1.2 2.8-2.7 2.8zM306 134.3H94c-2.5 0-4.5-2-4.5-4.5v-.6c0-2.5 2-4.5 4.5-4.5h212c2.5 0 4.5 2 4.5 4.5v.6c0 2.5-2.1 4.5-4.5 4.5zM306 161H94c-2.5 0-4.5-2-4.5-4.5v-.6c0-2.5 2-4.5 4.5-4.5h212c2.5 0 4.5 2 4.5 4.5v.6c0 2.5-2.1 4.5-4.5 4.5zM306 187.7H94c-2.5 0-4.5-2-4.5-4.5v-.6c0-2.5 2-4.5 4.5-4.5h212c2.5 0 4.5 2 4.5 4.5v.6c0 2.5-2.1 4.5-4.5 4.5zM306 240H94c-2.5 0-4.5-2-4.5-4.5v-.6c0-2.5 2-4.5 4.5-4.5h212c2.5 0 4.5 2 4.5 4.5v.6c0 2.5-2.1 4.5-4.5 4.5zM306 266.7H94c-2.5 0-4.5-2-4.5-4.5v-.6c0-2.5 2-4.5 4.5-4.5h212c2.5 0 4.5 2 4.5 4.5v.6c0 2.4-2.1 4.5-4.5 4.5zM306 293.4H94c-2.5 0-4.5-2-4.5-4.5v-.6c0-2.5 2-4.5 4.5-4.5h212c2.5 0 4.5 2 4.5 4.5v.6c0 2.4-2.1 4.5-4.5 4.5z" class="st1"/>
</svg>
